<?xml version="1.0" ?><svg data-name="Layer 1" id="Layer_1" viewBox="0 0 64 64" xmlns="http://www.w3.org/2000/svg"><rect height="7" width="2" x="10" y="32"/><path d="M19,50.184V45a1,1,0,0,0-.143-.515L16,39.723V32H14v8a1,1,0,0,0,.143.515L17,45.277v4.907a3,3,0,1,0,2,0Z"/><path d="M55,50.184V45a1,1,0,0,0-.143-.515L52,39.723V32H50v8a1,1,0,0,0,.143.515L53,45.277v4.907a3,3,0,1,0,2,0Z"/><path d="M61.857,49.485,59,44.723V39H57v6a1,1,0,0,0,.143.515L60,50.277V62h2V50A1,1,0,0,0,61.857,49.485Z"/><path d="M46,43.184V32H44V43.184a3,3,0,1,0,2,0Z"/><path d="M10,41a2.993,2.993,0,0,0-1,5.816v4.507L4.629,53.071A1,1,0,0,0,4,54v8H6V54.677l4.371-1.748A1,1,0,0,0,11,52V46.816A2.993,2.993,0,0,0,10,41Z"/><path d="M34,50.184V45a1,1,0,0,0-.143-.515L31,39.723V32H29v8a1,1,0,0,0,.143.515L32,45.277v4.907a3,3,0,1,0,2,0Z"/><path d="M38,44.723V32H36V45a1,1,0,0,0,.143.515L39,50.277V62h2V50a1,1,0,0,0-.143-.515Z"/><path d="M25,43.184V32H23V43.184a3,3,0,1,0,2,0Z"/><path d="M9,31H50A11,11,0,0,0,50,9h-.61a10.486,10.486,0,0,0-19.424-.879A10.5,10.5,0,0,0,12,15.5V19H9A6,6,0,0,0,9,31Zm34-4h7v2H43Zm-9,0h5v2H34Zm-4,0h2v2H30Z"/></svg>